# xmcd CD database file
#
# Track frame offsets:
#	150
#	12792
#	27352
#	43042
#	67277
#	77647
#	101782
#	118802
#	133685
#	145457
#	157420
#	167175
#	195432
#	205400
#	216025
#	228707
#	239025
#	250822
#	263362
#	277035
#	292375
#	310317
#	330225
#	343475
#
# Disc length: 4779 seconds
#
# Revision: 0
# Processed by: cddbd v1.5.1PL0 Copyright (c) Steve Scherf et al.
# Submitted via: CDex 1.51
#
DISCID=8612a918
DTITLE=Animals - Animalism and Bonus Hits
DYEAR=1995
DGENRE=Blues
TTITLE0=All Night Long
TTITLE1=Shake
TTITLE2=Other Side of Life, The
TTITLE3=Rock Me Baby
TTITLE4=Lucille
TTITLE5=Smoke Stack Lightning
TTITLE6=Hey Gyp
TTITLE7=Hit the Road Jack
TTITLE8=Outcast
TTITLE9=Louisiana Blues
TTITLE10=That's All I Am to You
TTITLE11=Going Down Slow
TTITLE12=Don't Let Me Be Misunderstood
TTITLE13=Blue Feeling
TTITLE14=Jailhouse Rock
TTITLE15=Gonna Send You Back to Walker
TTITLE16=Heartbreak Hotel
TTITLE17=Work Song
TTITLE18=Girl Named Sandoz, A
TTITLE19=Ain't That So
TTITLE20=Gratefully Dead
TTITLE21=Monterey
TTITLE22=When I Was Young
TTITLE23=San Franciscan Nights
EXTD=YEAR: 1995
EXTT0=
EXTT1=
EXTT2=
EXTT3=
EXTT4=
EXTT5=
EXTT6=
EXTT7=
EXTT8=
EXTT9=
EXTT10=
EXTT11=
EXTT12=
EXTT13=
EXTT14=
EXTT15=
EXTT16=
EXTT17=
EXTT18=
EXTT19=
EXTT20=
EXTT21=
EXTT22=
EXTT23=
PLAYORDER=
